<?xml version="1.0" encoding="utf-8"?>
<svg viewBox="0 0 500 500" xmlns="http://www.w3.org/2000/svg">
  <defs>
    <linearGradient gradientUnits="userSpaceOnUse" x1="5146.07" y1="60" x2="5146.07" y2="7000" id="gradient-1">
      <stop offset="0" style="stop-color: #bada55"/>
      <stop offset="1" style="stop-color: #758d29"/>
    </linearGradient>
  </defs>
  <g transform="matrix(0.059359, 0.002706, 0.002706, -0.059359, 93.292542, 379.806396)" fill="#000000" stroke="none" style="">
    <path d="M5087 2354 c-167 -16 -213 -28 -231 -57 -8 -12 -49 -191 -91 -397 -94 -461 -129 -618 -150 -667 l-16 -38 -15 34 c-15 35 -69 205 -245 773 -51 163 -95 302 -99 307 -9 16 -561 -17 -579 -34 -6 -7 68 -231 286 -865 118 -344 258 -752 310 -907 l96 -282 151 5 c251 9 446 21 452 27 4 3 44 169 90 369 47 200 157 670 245 1045 88 376 157 687 154 693 -8 14 -189 11 -358 -6z" style="fill: rgb(134, 0, 187);"/>
    <path d="M3268 2271 c-53 -3 -99 -9 -102 -12 -3 -3 3 -183 13 -400 45 -908 38 -1060 -52 -1158 -49 -53 -85 -61 -304 -61 l-203 0 0 -62 c0 -87 20 -441 25 -446 8 -8 519 29 597 43 175 30 279 84 385 198 74 79 134 195 159 307 14 59 17 125 18 305 0 257 -13 400 -49 553 -32 133 -231 723 -247 734 -14 8 -87 8 -240 -1z" style="fill: rgb(134, 0, 187);"/>
    <path d="M1870 2199 c-173 -9 -324 -18 -336 -18 -17 -1 -22 -11 -32 -58 -6 -32 -49 -251 -96 -488 l-84 -430 100 -330 c140 -468 200 -637 219 -618 9 10 70 303 140 668 28 149 55 274 59 278 4 4 10 -43 13 -105 11 -210 57 -923 63 -966 l5 -43 52 5 c29 3 161 11 294 17 133 7 247 15 254 20 13 8 11 57 -51 1319 -16 327 -32 634 -36 683 l-6 87 -122 -1 c-66 -1 -263 -10 -436 -20z" style="fill: rgb(134, 0, 187);"/>
    <path d="M415 2119 c-99 -3 -227 -7 -285 -8 -58 -1 -111 -5 -117 -9 -10 -6 -4 -174 27 -793 54 -1063 68 -1300 73 -1305 5 -5 570 25 576 31 3 4 -20 742 -34 1050 l-5 110 21 -55 c11 -30 90 -284 175 -565 86 -280 160 -514 165 -519 11 -12 398 9 452 25 21 5 41 17 44 24 3 8 -13 79 -35 157 -31 109 -395 1299 -552 1801 l-21 67 -152 -2 c-84 -1 -233 -5 -332 -9z" style="fill: rgb(134, 0, 187);"/>
  </g>
  <g transform="matrix(0.023303, 0, 0, -0.023303, 150.61763, 171.480972)" fill="#000000" stroke="none" style="">
    <path d="M6526 6808 c-20 -106 -76 -402 -124 -658 l-88 -465 -2934 -5 -2935 -5 -57 -21 c-143 -55 -244 -167 -284 -317 -21 -81 -18 -116 41 -424 31 -158 110 -565 175 -903 65 -338 135 -700 155 -805 20 -104 61 -316 91 -470 30 -154 82 -422 115 -595 33 -173 82 -427 109 -565 27 -137 88 -450 134 -695 47 -245 102 -529 122 -633 l37 -187 3162 0 3163 0 5 23 c3 12 33 161 66 332 33 171 146 753 251 1295 105 542 238 1226 295 1520 57 294 140 722 185 950 174 888 287 1485 283 1493 -2 4 -299 7 -659 7 -408 0 -654 4 -654 10 0 13 79 431 86 453 5 16 75 17 1293 17 1149 0 1293 2 1342 16 176 52 299 217 299 404 0 181 -108 334 -283 399 l-58 21 -1648 0 -1647 0 -38 -192z m935 -1990 c7 -3 -108 -621 -382 -2048 -39 -201 -102 -530 -139 -732 -90 -476 -210 -1098 -216 -1121 -5 -16 -129 -17 -2472 -15 l-2466 3 -8 40 c-11 48 -189 970 -503 2595 -167 861 -244 1273 -241 1279 4 6 6413 4 6427 -1z" style="stroke: url(#gradient-1); fill: rgb(134, 0, 187);"/>
  </g>
  <g transform="matrix(0.059421, 0, 0, -0.059421, 104.673203, 491.56311)" fill="#000000" stroke="none" style="">
    <path d="M534 1454 c-45 -56 -144 -122 -305 -204 -179 -91 -219 -135 -219 -242 0 -69 26 -113 83 -138 49 -23 78 -25 95 -8 21 21 13 37 -28 58 -65 33 -77 84 -37 154 18 32 48 55 160 121 76 45 160 101 187 124 28 23 50 39 50 36 0 -15 -166 -600 -219 -774 -33 -107 -58 -198 -55 -203 3 -4 18 -8 34 -8 50 0 56 15 166 390 81 275 86 286 210 446 72 93 165 181 211 201 85 35 133 0 133 -96 0 -58 -106 -506 -180 -763 -50 -173 -50 -178 -4 -178 32 0 37 4 54 43 11 24 52 167 91 318 39 151 79 290 89 310 27 52 135 195 199 263 102 108 179 140 232 97 37 -30 32 -132 -15 -286 -20 -66 -55 -190 -78 -275 -40 -147 -42 -162 -42 -300 -1 -137 1 -148 25 -195 32 -64 97 -112 127 -96 39 21 38 51 -2 85 -93 80 -92 205 5 553 90 326 102 378 102 448 1 85 -19 130 -68 151 -124 51 -270 -32 -421 -240 l-20 -28 0 94 c1 106 -11 134 -67 168 -39 24 -113 26 -164 5 -63 -26 -142 -95 -215 -187 -39 -48 -72 -88 -73 -88 -2 0 13 59 32 131 27 103 32 133 22 145 -22 27 -55 16 -95 -32z" style="fill: rgb(250, 250, 250);"/>
    <path d="M3189 1463 c-13 -36 -105 -342 -169 -568 -33 -115 -64 -203 -87 -245 -49 -87 -135 -172 -197 -196 -47 -17 -50 -17 -84 2 -81 44 -62 162 53 331 64 94 61 106 -73 260 -41 47 -52 67 -47 83 9 29 -13 88 -35 95 -11 3 -28 1 -40 -5 -31 -16 -36 -56 -13 -109 22 -52 22 -50 -38 -232 -20 -64 -53 -147 -72 -185 -93 -184 -238 -301 -261 -210 -7 28 12 134 53 294 26 99 27 114 14 127 -31 32 -64 15 -77 -40 -15 -62 -68 -179 -110 -245 -88 -135 -161 -193 -219 -171 -38 15 -50 53 -45 143 4 66 11 90 46 161 46 93 119 174 186 207 67 32 157 28 235 -11 l63 -32 20 21 c29 28 11 54 -59 89 -51 24 -69 28 -148 28 -80 0 -97 -4 -157 -32 -162 -77 -288 -279 -288 -465 0 -89 12 -121 62 -163 28 -24 38 -27 89 -23 85 6 150 57 230 178 16 24 16 24 16 -30 -2 -150 113 -183 239 -68 94 87 183 253 245 462 16 55 31 102 34 104 13 14 95 -96 95 -128 0 -8 -21 -49 -47 -90 -75 -121 -96 -176 -97 -251 -1 -200 204 -244 364 -77 l51 53 -7 -40 c-15 -78 -12 -100 17 -103 15 -2 32 4 40 14 7 9 30 84 50 166 21 82 50 174 65 205 76 150 270 264 320 188 13 -20 14 -30 4 -59 -17 -51 -101 -129 -191 -176 -89 -46 -87 -40 -69 -163 19 -127 67 -187 152 -187 89 0 164 47 244 153 25 34 48 62 51 62 2 0 12 -24 22 -53 21 -62 67 -114 128 -143 54 -26 165 -29 244 -6 71 21 166 90 216 157 l38 51 7 -64 c7 -77 29 -122 66 -140 15 -8 71 -17 125 -21 240 -16 297 -63 136 -114 -160 -51 -412 -74 -1024 -97 -851 -31 -1232 -52 -1505 -85 -167 -21 -210 -31 -210 -50 0 -12 138 -7 300 10 184 20 668 41 1350 60 656 18 1013 53 1191 115 123 44 135 153 20 185 -20 6 -91 19 -157 30 -151 24 -169 31 -190 72 -24 46 -14 171 29 341 19 76 37 140 40 143 3 3 48 9 99 12 92 7 93 7 96 35 l3 27 -85 0 c-70 0 -86 3 -86 15 0 8 23 81 51 162 28 82 52 159 53 173 1 22 -4 25 -36 28 l-36 3 -31 -81 c-17 -44 -48 -129 -69 -190 l-37 -109 -40 -3 c-35 -3 -40 -6 -43 -30 -3 -24 0 -28 23 -28 14 0 28 -6 31 -14 9 -22 -53 -242 -83 -299 -63 -116 -194 -219 -296 -233 -144 -20 -246 63 -235 191 3 36 5 40 28 37 14 -2 68 -4 120 -5 86 -2 100 1 145 25 163 86 198 276 64 346 -88 47 -216 12 -312 -85 -56 -56 -83 -99 -127 -202 -79 -185 -198 -311 -294 -311 -41 0 -83 44 -95 101 -22 99 -19 105 59 144 129 65 210 160 210 246 0 64 -16 95 -58 115 -86 41 -219 -16 -315 -136 -19 -23 -27 -28 -23 -15 3 11 42 139 86 283 44 145 80 270 80 278 0 15 -30 34 -55 34 -8 0 -20 -12 -26 -27z m843 -500 c28 -25 20 -99 -16 -154 -42 -62 -110 -86 -231 -81 -66 4 -71 12 -40 75 33 66 105 143 160 169 46 21 97 18 127 -9z" style="fill: rgb(250, 250, 250);"/>
  </g>
  <g transform="matrix(0.023303, 0, 0, -0.023303, 175.015518, 236.958389)" fill="#000000" stroke="none" style="">
    <path d="M50 2410 c0 -6 15 -50 34 -98 247 -641 818 -1071 1518 -1143 62 -6 114 -13 116 -14 2 -2 -16 -28 -41 -58 -95 -117 -140 -251 -141 -417 -1 -123 13 -186 64 -295 106 -228 324 -371 581 -383 209 -9 363 51 510 197 137 137 202 291 202 481 0 156 -44 283 -144 417 -22 29 -39 55 -39 58 0 3 221 5 490 5 270 0 490 -2 490 -5 0 -3 -17 -29 -39 -58 -100 -134 -144 -261 -144 -417 0 -116 20 -198 75 -310 33 -68 58 -102 127 -171 147 -146 301 -206 510 -197 257 12 475 155 581 383 51 109 65 172 64 295 -1 166 -46 300 -141 417 -25 30 -43 56 -41 58 2 1 54 8 116 14 384 40 718 179 1001 417 231 193 407 442 517 726 19 48 34 92 34 98 0 7 -152 10 -469 10 l-469 0 -51 -64 c-116 -146 -277 -254 -468 -313 l-88 -28 -1605 0 -1605 0 -88 28 c-191 59 -352 167 -468 313 l-51 64 -469 0 c-317 0 -469 -3 -469 -10z" style="fill: rgb(250, 250, 250);"/>
  </g>
</svg>