<?xml version="1.0" standalone="no"?>
<!DOCTYPE svg PUBLIC "-//W3C//DTD SVG 20010904//EN"
 "http://www.w3.org/TR/2001/REC-SVG-20010904/DTD/svg10.dtd">
<svg version="1.0" xmlns="http://www.w3.org/2000/svg"
 width="1004.000000pt" height="749.000000pt" viewBox="0 0 1004.000000 749.000000"
 preserveAspectRatio="xMidYMid meet">

<g transform="translate(0.000000,749.000000) scale(0.100000,-0.100000)"
fill="#000000" stroke="none">
<path d="M9590 7475 c-512 -41 -610 -60 -654 -127 -17 -26 -20 -41 -191 -878
-151 -742 -221 -1046 -260 -1119 l-13 -25 -15 30 c-23 46 -189 556 -292 899
-75 248 -248 806 -302 968 l-55 167 -32 0 c-64 0 -624 -30 -736 -40 -147 -13
-285 -31 -299 -39 -14 -9 230 -734 799 -2376 140 -403 193 -556 368 -1072
l109 -322 234 5 c129 3 380 13 559 22 l324 17 218 935 c281 1208 466 1994 589
2504 54 226 99 418 99 427 0 9 -8 20 -17 24 -33 14 -256 14 -433 0z"/>
<path d="M6057 7305 c-126 -7 -230 -15 -233 -18 -2 -2 14 -366 37 -808 36
-678 42 -872 43 -1234 1 -379 -1 -442 -18 -530 -46 -251 -129 -355 -318 -400
-77 -18 -311 -20 -563 -4 -97 6 -179 8 -182 5 -6 -6 37 -937 43 -944 7 -9 834
41 963 58 410 53 606 136 814 343 113 113 169 191 233 322 104 215 138 414
138 820 0 396 -27 727 -79 975 -38 177 -88 339 -263 850 -88 256 -167 488
-176 516 -24 72 -20 72 -439 49z"/>
<path d="M4150 7209 c-80 -5 -370 -20 -645 -34 -275 -14 -548 -28 -606 -31
l-105 -7 -47 -221 c-42 -196 -99 -483 -263 -1331 l-46 -240 180 -600 c211
-702 287 -931 364 -1097 17 -37 34 -65 39 -63 18 12 143 607 284 1360 72 381
95 477 95 397 0 -18 13 -227 30 -465 16 -237 46 -688 65 -1002 20 -313 37
-571 39 -572 5 -5 1128 56 1134 62 5 4 -163 3403 -185 3763 l-6 92 -91 -1
c-50 -1 -156 -6 -236 -10z"/>
<path d="M1005 7034 c-416 -12 -999 -34 -1001 -37 -2 -4 196 -3860 198 -3862
6 -6 1067 51 1073 57 4 3 -5 305 -19 670 -14 364 -30 814 -36 998 -5 184 -12
366 -15 404 -2 38 0 65 4 60 9 -9 257 -814 511 -1654 73 -239 136 -439 141
-444 12 -13 643 20 768 39 120 19 156 39 155 86 -2 58 -220 783 -761 2524
-184 594 -342 1101 -349 1128 l-15 47 -107 -1 c-59 -1 -305 -8 -547 -15z"/>
<path d="M1552 2697 c-103 -139 -243 -236 -576 -401 -222 -110 -241 -122 -310
-189 -90 -88 -117 -149 -117 -263 0 -140 70 -235 202 -275 88 -27 130 -23 147
13 21 45 -1 77 -68 99 -34 11 -64 29 -77 46 -45 56 -39 161 13 250 31 54 108
109 299 213 178 98 266 157 359 239 38 34 71 60 72 58 3 -3 -118 -445 -266
-967 -38 -135 -108 -366 -156 -515 -48 -148 -88 -283 -88 -300 -1 -30 0 -30
56 -33 50 -3 60 0 87 25 35 32 85 184 263 798 l101 350 65 100 c35 55 102 150
147 210 227 300 399 445 529 445 104 0 150 -61 149 -195 -2 -97 -4 -106 -142
-665 -122 -492 -157 -623 -233 -879 -51 -169 -51 -174 -32 -188 24 -18 93 -12
128 11 38 25 95 214 251 836 98 391 82 357 275 615 180 242 321 384 438 442
44 21 62 25 114 21 53 -4 65 -9 89 -35 39 -45 53 -121 40 -218 -15 -102 -40
-199 -117 -449 -81 -261 -146 -514 -175 -682 -26 -151 -31 -365 -10 -459 31
-138 111 -253 212 -303 36 -18 46 -19 72 -9 37 15 73 78 59 102 -5 9 -31 33
-58 54 -96 73 -141 210 -130 396 9 144 45 302 163 725 140 498 150 540 164
647 13 98 2 208 -26 262 -71 138 -284 162 -469 54 -135 -79 -270 -212 -394
-390 -31 -45 -60 -82 -63 -82 -3 -1 0 32 8 72 18 90 12 243 -12 311 -37 103
-129 156 -269 156 -184 -1 -397 -170 -634 -504 -23 -33 -42 -53 -42 -46 0 7
27 114 61 239 33 124 61 237 61 250 1 34 -36 61 -83 61 -35 0 -42 -5 -77 -53z"/>
<path d="M6423 2718 c-17 -22 -283 -919 -368 -1238 -58 -219 -153 -390 -294
-531 -162 -162 -319 -191 -405 -75 -29 38 -34 162 -11 242 24 86 95 215 180
329 79 106 86 128 64 196 -18 51 -86 143 -197 264 l-99 109 5 65 c5 78 -13
130 -53 157 -60 39 -145 -23 -145 -106 0 -23 14 -65 35 -107 l35 -70 -40 -147
c-50 -180 -111 -354 -178 -504 -141 -315 -390 -554 -482 -462 -42 42 -21 200
75 563 30 114 55 213 55 220 0 38 -102 74 -134 48 -8 -7 -20 -35 -27 -64 -90
-383 -381 -797 -562 -801 -95 -2 -141 71 -140 224 3 297 214 630 470 741 31
14 79 23 134 26 106 7 190 -15 291 -77 37 -22 71 -40 77 -40 19 0 81 62 81 80
0 47 -149 136 -278 166 -93 22 -241 14 -344 -19 -272 -87 -513 -376 -599 -718
-29 -113 -24 -290 9 -364 42 -91 103 -140 195 -155 160 -26 314 72 456 288 30
45 56 82 58 82 2 0 1 -28 -3 -63 -13 -132 34 -239 121 -273 40 -15 55 -16 107
-6 89 17 143 47 231 131 175 167 343 500 451 891 21 74 40 142 43 150 7 20
112 -95 148 -163 46 -83 41 -106 -48 -240 -87 -129 -158 -273 -178 -357 -41
-177 16 -352 134 -409 178 -86 402 -9 567 195 33 41 60 71 60 65 0 -5 -11 -57
-25 -116 -14 -59 -23 -115 -20 -125 10 -31 77 -40 125 -15 25 13 31 25 50 112
94 418 127 524 203 641 169 261 462 416 557 295 61 -78 -35 -244 -212 -364
-67 -46 -246 -139 -267 -139 -11 0 -13 -20 -7 -112 20 -311 94 -449 257 -473
58 -9 150 8 214 40 106 51 237 181 328 324 l41 64 17 -70 c58 -236 228 -362
487 -363 85 0 205 23 277 52 132 55 287 186 373 316 l37 55 6 -94 c7 -109 14
-137 44 -199 49 -98 104 -123 270 -125 202 -3 405 -40 451 -81 16 -15 22 -29
17 -37 -4 -6 -8 -16 -8 -22 0 -5 -13 -16 -30 -24 -51 -25 -189 -71 -210 -71
-12 0 -25 -4 -30 -9 -6 -5 -28 -11 -50 -14 -22 -3 -83 -12 -135 -21 -268 -45
-896 -90 -1455 -105 -473 -13 -903 -30 -1775 -71 -212 -10 -606 -37 -875 -60
-179 -16 -625 -76 -635 -86 -4 -5 -10 -21 -14 -36 -6 -27 -6 -28 36 -23 142
16 390 35 398 30 5 -3 27 -1 47 4 35 9 307 30 483 36 41 2 95 6 120 9 25 3
115 8 200 11 85 3 198 8 250 10 91 4 271 11 520 20 63 2 183 7 265 10 237 8
473 15 695 20 901 19 1491 61 1895 135 329 60 456 113 499 209 40 88 -9 165
-132 205 -79 26 -100 30 -379 71 -216 32 -250 50 -283 150 -19 58 -15 221 10
350 19 101 110 466 125 508 6 15 24 17 175 17 122 0 170 3 178 13 16 19 25 63
17 86 -6 20 -13 21 -166 21 -122 0 -159 3 -159 13 0 16 136 422 185 551 l37
98 -21 21 c-16 16 -34 21 -73 22 -52 0 -53 -1 -72 -40 -27 -58 -125 -325 -186
-507 l-53 -158 -72 0 c-67 0 -73 -2 -83 -25 -15 -33 -15 -68 0 -83 7 -7 36
-12 65 -12 29 0 53 -4 53 -8 0 -4 -24 -105 -54 -224 -44 -175 -62 -232 -101
-306 -109 -212 -270 -363 -460 -434 -50 -18 -82 -22 -185 -22 -145 -1 -191 14
-258 84 -74 76 -106 190 -88 314 7 43 8 45 31 36 14 -5 66 -17 117 -26 269
-47 518 56 616 256 140 285 -52 523 -366 456 -126 -26 -213 -76 -317 -180
-105 -104 -158 -187 -216 -336 -135 -349 -343 -586 -533 -607 -60 -7 -89 1
-130 37 -54 48 -78 118 -84 240 l-4 106 70 31 c128 57 215 114 299 198 111
111 148 185 148 300 0 118 -42 181 -139 210 -63 19 -107 19 -181 0 -138 -36
-262 -122 -357 -249 -34 -47 -64 -84 -65 -82 -4 4 56 204 184 616 69 223 128
422 131 442 4 33 1 39 -29 57 -38 23 -91 27 -106 9z m1517 -937 c66 -46 75
-138 25 -249 -71 -159 -232 -231 -454 -203 -128 17 -129 17 -107 78 68 182
247 364 388 393 55 11 116 3 148 -19z"/>
</g>
</svg>
